<svg xmlns="http://www.w3.org/2000/svg" width="32" height="32" viewBox="0 0 32 32">
  <g id="组_4743" data-name="组 4743" transform="translate(-3194 -489)">
    <rect id="矩形_239" data-name="矩形 239" width="32" height="32" transform="translate(3194 489)" fill="#fff"/>
    <g id="组_4740" data-name="组 4740" transform="translate(3194.16 489.206)">
      <path id="路径_1176" data-name="路径 1176" d="M8.209,5.3c1.215-.723,2.352-1.4,3.491-2.078,1.293-.767,2.592-1.524,3.877-2.3a.676.676,0,0,1,.789-.006Q23.019,4.8,29.686,8.646a.755.755,0,0,1,.441.752q-.018,7.679-.007,15.357c0,.275,0,.51-.3.688-2.408,1.426-4.805,2.871-7.2,4.31-.066.039-.14.065-.285.132-.011-.242-.027-.439-.027-.635q0-7.366.008-14.733a.964.964,0,0,0-.528-.956q-6.513-3.924-13-7.888C8.621,5.574,8.464,5.468,8.209,5.3Z" fill="#214e78"/>
      <path id="路径_1177" data-name="路径 1177" d="M12.189,31.306v-.638c0-3.391-.01-6.782.011-10.173a.991.991,0,0,0-.55-.99c-3.143-1.88-6.269-3.786-9.4-5.685-.12-.073-.233-.159-.41-.28.3-.186.548-.348.8-.5,1.982-1.17,3.97-2.332,5.946-3.514a.641.641,0,0,1,.774.01q4.718,2.907,9.451,5.786a.582.582,0,0,1,.314.576c-.008,3.6,0,7.2-.017,10.8a.73.73,0,0,1-.266.54c-2.122,1.34-4.259,2.658-6.394,3.979A1.662,1.662,0,0,1,12.189,31.306Z" fill="#214e78"/>
      <path id="路径_1178" data-name="路径 1178" d="M8.623,29.528,2.106,25.522l6.517-3.889Z" fill="#214e78"/>
    </g>
  </g>
</svg>
